<?xml version="1.0" standalone="no"?>
<!DOCTYPE svg PUBLIC "-//W3C//DTD SVG 20010904//EN"
 "http://www.w3.org/TR/2001/REC-SVG-20010904/DTD/svg10.dtd">
<svg version="1.0" xmlns="http://www.w3.org/2000/svg"
 width="32.000000pt" height="32.000000pt" viewBox="0 0 32.000000 32.000000"
 preserveAspectRatio="xMidYMid meet">

<g transform="translate(0.000000,32.000000) scale(0.100000,-0.100000)"
fill="#000000" stroke="none">
<path d="M179 261 c-16 -16 -29 -39 -29 -52 0 -19 5 -16 38 21 40 45 65 49 79
13 5 -12 -6 -27 -38 -55 -39 -34 -41 -38 -21 -38 33 0 82 52 82 87 0 60 -61
73 -111 24z"/>
<path d="M150 165 c-24 -24 -41 -48 -37 -52 8 -7 97 75 97 89 0 17 -18 6 -60
-37z"/>
<path d="M59 141 c-31 -31 -39 -77 -17 -99 7 -7 25 -12 41 -12 35 0 87 49 87
82 0 20 -4 18 -38 -21 -28 -32 -43 -43 -55 -38 -36 14 -32 39 13 79 37 33 40
38 21 38 -13 0 -36 -13 -52 -29z"/>
</g>
</svg>
