<?xml version="1.0" standalone="no"?>
<!DOCTYPE svg PUBLIC "-//W3C//DTD SVG 20010904//EN"
 "http://www.w3.org/TR/2001/REC-SVG-20010904/DTD/svg10.dtd">
<svg version="1.0" xmlns="http://www.w3.org/2000/svg"
 width="32.000000pt" height="32.000000pt" viewBox="0 0 32.000000 32.000000"
 preserveAspectRatio="xMidYMid meet">

<g transform="translate(0.000000,32.000000) scale(0.100000,-0.100000)"
fill="#000000" stroke="none">
<path d="M52 298 c-8 -8 -12 -54 -12 -140 0 -153 -5 -148 139 -148 140 0 130
19 -11 22 -93 2 -113 6 -113 18 0 12 20 16 113 18 l112 3 0 119 0 120 -108 0
c-71 0 -112 -4 -120 -12z m186 -60 c3 -16 -6 -18 -72 -18 -70 0 -76 2 -76 20
0 19 5 21 72 18 60 -2 73 -6 76 -20z"/>
</g>
</svg>
