<?xml version="1.0" standalone="no"?>
<!DOCTYPE svg PUBLIC "-//W3C//DTD SVG 20010904//EN"
 "http://www.w3.org/TR/2001/REC-SVG-20010904/DTD/svg10.dtd">
<svg version="1.0" xmlns="http://www.w3.org/2000/svg"
 width="32.000000pt" height="32.000000pt" viewBox="0 0 32.000000 32.000000"
 preserveAspectRatio="xMidYMid meet">

<g transform="translate(0.000000,32.000000) scale(0.100000,-0.100000)"
fill="#000000" stroke="none">
<path d="M56 277 c-25 -24 -46 -51 -46 -60 0 -33 11 -43 39 -39 16 2 37 -1 48
-8 16 -10 15 -11 -7 -6 -59 12 -92 -18 -65 -60 8 -13 15 -30 15 -37 0 -20 64
-67 89 -67 20 0 21 5 21 160 l0 160 -24 0 c-14 0 -42 -17 -70 -43z m64 -42
c-7 -8 -20 -15 -28 -15 -13 0 -12 3 4 15 25 19 40 19 24 0z m-11 -148 l0 -22
-9 23 c-5 12 -14 22 -20 22 -5 0 -10 5 -10 10 0 7 6 7 20 0 11 -6 20 -20 19
-33z"/>
<path d="M170 160 c0 -147 1 -160 18 -160 33 0 43 20 21 43 -20 22 -27 53 -9
42 6 -3 10 -12 10 -20 0 -8 8 -18 17 -24 21 -11 53 3 53 25 0 8 7 26 16 39 19
30 11 49 -16 35 -10 -5 -27 -10 -37 -10 -11 1 -6 6 14 15 44 19 60 54 43 94
-7 17 -20 33 -30 36 -9 3 -25 14 -35 25 -10 11 -29 20 -42 20 l-23 0 0 -160z
m79 48 c14 -6 21 -12 14 -15 -19 -7 -53 16 -52 35 0 11 2 13 6 4 3 -7 17 -18
32 -24z"/>
</g>
</svg>
