<?xml version="1.0" standalone="no"?>
<!DOCTYPE svg PUBLIC "-//W3C//DTD SVG 20010904//EN"
 "http://www.w3.org/TR/2001/REC-SVG-20010904/DTD/svg10.dtd">
<svg version="1.0" xmlns="http://www.w3.org/2000/svg"
 width="32.000000pt" height="32.000000pt" viewBox="0 0 32.000000 32.000000"
 preserveAspectRatio="xMidYMid meet">

<g transform="translate(0.000000,32.000000) scale(0.100000,-0.100000)"
fill="#000000" stroke="none">
<path d="M17 299 c-14 -9 -17 -26 -17 -117 0 -59 5 -114 10 -122 7 -12 39 -16
160 -18 l150 -3 0 120 0 121 -121 0 c-94 0 -124 3 -135 15 -18 17 -23 18 -47
4z m43 -94 c0 -84 0 -85 -25 -85 -25 0 -25 1 -25 78 0 84 3 92 32 92 16 0 18
-9 18 -85z m210 -6 c0 -12 -4 -17 -11 -14 -5 4 -19 -1 -30 -11 -18 -16 -21
-16 -36 -1 -15 15 -19 14 -47 -5 l-31 -21 28 29 c24 25 30 27 48 16 16 -10 24
-10 35 -1 7 6 11 15 8 20 -3 5 4 9 15 9 15 0 21 -6 21 -21z m-5 -89 c4 -6 -23
-10 -74 -10 -47 0 -81 4 -81 10 0 6 31 10 74 10 41 0 78 -4 81 -10z"/>
</g>
</svg>
