<?xml version="1.0" standalone="no"?>
<!DOCTYPE svg PUBLIC "-//W3C//DTD SVG 20010904//EN"
 "http://www.w3.org/TR/2001/REC-SVG-20010904/DTD/svg10.dtd">
<svg version="1.0" xmlns="http://www.w3.org/2000/svg"
 width="32.000000pt" height="32.000000pt" viewBox="0 0 32.000000 32.000000"
 preserveAspectRatio="xMidYMid meet">

<g transform="translate(0.000000,32.000000) scale(0.100000,-0.100000)"
fill="#000000" stroke="none">
<path d="M122 278 c-22 -22 -15 -76 13 -94 23 -15 27 -15 50 0 18 12 25 25 25
49 0 40 -15 57 -50 57 -14 0 -31 -5 -38 -12z"/>
<path d="M81 117 c-25 -20 -40 -41 -40 -54 -1 -23 1 -23 119 -23 118 0 120 0
119 23 0 13 -15 34 -40 54 -34 28 -43 31 -60 20 -15 -9 -23 -9 -38 0 -17 11
-26 8 -60 -20z"/>
</g>
</svg>
